<?xml version="1.0" encoding="UTF-8" ?>
<!DOCTYPE svg PUBLIC "-//W3C//DTD SVG 1.1//EN" "http://www.w3.org/Graphics/SVG/1.1/DTD/svg11.dtd">
<svg viewBox="0 0 420 371" version="1.1" xmlns="http://www.w3.org/2000/svg">
<g id="#e85984ff">
<path fill="#e85984" opacity="1.00" d=" M 2.64 43.84 C 24.10 29.89 45.59 16.01 67.00 2.00 C 66.96 101.03 67.07 200.07 66.95 299.10 C 58.54 304.70 49.98 310.07 41.58 315.69 C 30.75 322.43 20.06 329.41 9.46 336.52 C 7.37 337.98 5.12 339.18 2.77 340.16 C 2.67 241.39 2.91 142.61 2.64 43.84 Z" />
</g>
<g id="#e51050ff">
<path fill="#e51050" opacity="1.00" d=" M 67.00 2.00 C 161.68 2.01 256.37 1.98 351.05 2.01 C 360.93 2.14 370.45 9.92 371.26 20.01 C 371.64 37.75 371.01 55.52 371.57 73.27 C 371.78 141.18 371.60 209.09 371.66 277.00 C 371.52 284.43 372.01 291.87 371.41 299.29 C 339.70 299.61 307.97 299.33 276.25 299.42 C 210.25 299.42 144.25 299.42 78.25 299.43 C 74.48 299.49 70.70 299.51 66.95 299.10 C 67.07 200.07 66.96 101.03 67.00 2.00 M 197.07 63.77 C 190.78 81.95 185.76 100.56 179.91 118.88 C 168.99 154.63 158.06 190.38 147.13 226.13 C 146.12 228.98 145.27 231.90 144.78 234.89 C 155.12 235.05 165.48 235.13 175.82 234.86 C 179.79 221.11 183.82 207.38 187.65 193.59 C 188.03 192.37 188.52 191.20 189.00 190.03 C 208.61 190.08 228.23 189.77 247.84 190.19 C 252.55 205.12 257.03 220.13 262.03 234.96 C 272.60 235.02 283.18 235.09 293.75 234.90 C 287.48 213.87 280.34 193.11 273.82 172.16 C 262.06 136.08 250.73 99.86 238.90 63.81 C 224.97 63.47 211.00 63.54 197.07 63.77 Z" />
<path fill="#e51050" opacity="1.00" d=" M 217.58 86.00 C 219.60 90.83 220.40 96.05 222.03 101.01 C 228.01 122.30 234.34 143.51 240.07 164.88 C 225.37 165.08 210.65 165.09 195.94 164.88 C 202.72 138.48 210.65 112.37 217.58 86.00 Z" />
</g>
<g id="#ffffffff">
<path fill="#ffffff" opacity="1.00" d=" M 197.07 63.77 C 211.00 63.54 224.97 63.47 238.90 63.81 C 250.73 99.86 262.06 136.08 273.82 172.16 C 280.34 193.11 287.48 213.87 293.75 234.90 C 283.18 235.09 272.60 235.02 262.03 234.96 C 257.03 220.13 252.55 205.12 247.84 190.19 C 228.23 189.77 208.61 190.08 189.00 190.03 C 188.52 191.20 188.03 192.37 187.65 193.59 C 183.82 207.38 179.79 221.11 175.82 234.86 C 165.48 235.13 155.12 235.05 144.78 234.89 C 145.27 231.90 146.12 228.98 147.13 226.13 C 158.06 190.38 168.99 154.63 179.91 118.88 C 185.76 100.56 190.78 81.95 197.07 63.77 M 217.58 86.00 C 210.65 112.37 202.72 138.48 195.94 164.88 C 210.65 165.09 225.37 165.08 240.07 164.88 C 234.34 143.51 228.01 122.30 222.03 101.01 C 220.40 96.05 219.60 90.83 217.58 86.00 Z" />
</g>
<g id="#770829ff">
<path fill="#770829" opacity="1.00" d=" M 371.57 73.27 C 380.02 72.23 388.59 72.76 397.08 72.92 C 397.51 95.27 397.14 117.64 397.26 140.00 C 397.26 211.33 397.27 282.67 397.26 354.00 C 397.21 359.31 397.45 364.62 397.09 369.93 C 287.06 370.11 177.03 369.92 67.00 370.02 C 60.47 370.00 53.30 369.40 48.23 364.81 C 44.43 361.24 41.48 356.32 41.60 350.96 C 41.57 339.20 41.59 327.45 41.58 315.69 C 49.98 310.07 58.54 304.70 66.95 299.10 C 70.70 299.51 74.48 299.49 78.25 299.43 C 144.25 299.42 210.25 299.42 276.25 299.42 C 307.97 299.33 339.70 299.61 371.41 299.29 C 372.01 291.87 371.52 284.43 371.66 277.00 C 371.60 209.09 371.78 141.18 371.57 73.27 Z" />
</g>
</svg>
