<svg version="1.1" id="svg2" width="160" height="160" viewBox="0 0 160 160" xmlns="http://www.w3.org/2000/svg">
  <defs id="defs6"></defs>
  <ellipse style="stroke: rgb(255, 255, 255); fill: rgb(255, 255, 255);" cx="80" cy="80" rx="80" ry="80"></ellipse>
  <g id="g8" transform="matrix(1.625205, 0, 0, -1.677268, -191.198074, 250.391815)" style="">
    <g id="g10" transform="scale(0.1)">
      <path d="m 1477.69,1243.17 c -7.94,0 -13.54,-0.96 -19.19,-2.35 v -0.94 h 0.91 c 3.78,-7.47 10.34,-12.66 14.98,-19.2 3.77,-7.49 7.05,-14.95 10.79,-22.45 0.46,0.46 0.91,0.95 0.91,0.95 6.6,4.66 9.87,12.14 9.87,23.39 -2.83,3.3 -3.27,6.55 -5.63,9.84 -2.8,4.67 -8.89,7.01 -12.64,10.76" style="fill:#5b85a4;fill-opacity:1;fill-rule:evenodd;stroke:none" id="path14"></path>
      <path d="m 1955.08,836.434 c -37.46,0.937 -66.47,-2.801 -90.8,-13.106 -7.02,-2.805 -18.24,-2.805 -19.2,-11.699 3.77,-3.738 4.22,-9.816 7.52,-14.988 5.6,-9.36 15.41,-21.977 24.32,-28.547 9.83,-7.492 19.66,-14.953 29.97,-21.504 18.24,-11.281 38.84,-17.805 56.6,-29.043 10.33,-6.543 20.59,-14.961 30.92,-22 5.13,-3.742 8.38,-9.836 14.96,-12.152 v 1.418 c -3.3,4.199 -4.22,10.285 -7.48,14.992 -4.67,4.644 -9.36,8.883 -14.05,13.543 -13.58,18.25 -30.45,34.148 -48.66,47.254 -14.99,10.324 -47.77,24.367 -53.83,41.632 0,0 -0.49,0.496 -0.95,0.957 10.3,0.95 22.49,4.7 32.31,7.539 15.89,4.2 30.4,3.25 46.78,7.45 7.5,1.886 14.99,4.242 22.51,6.543 v 4.242 c -8.47,8.406 -14.53,19.656 -23.42,27.605 -23.85,20.586 -50.09,40.696 -77.23,57.571 -14.53,9.363 -33.25,15.418 -48.7,23.394 -5.59,2.813 -14.94,4.199 -18.23,8.906 -8.43,10.293 -13.13,23.848 -19.2,36.036 -13.56,25.713 -26.69,54.253 -38.37,81.443 -8.42,18.24 -13.57,36.48 -23.87,53.34 -48.23,79.58 -100.63,127.76 -181.13,175.04 -17.32,9.84 -37.91,14.05 -59.89,19.2 -11.72,0.49 -23.41,1.4 -35.11,1.86 -7.5,3.29 -15,12.19 -21.54,16.4 -26.69,16.84 -95.46,53.34 -115.13,5.14 -12.64,-30.44 18.72,-60.38 29.49,-75.83 7.95,-10.75 18.26,-22.94 23.85,-35.09 3.28,-7.96 4.22,-16.4 7.51,-24.81 7.48,-20.59 14.49,-43.53 24.34,-62.73 5.13,-9.83 10.74,-20.14 17.29,-28.99 3.78,-5.18 10.31,-7.49 11.72,-15.94 -6.53,-9.35 -7.04,-23.39 -10.78,-35.1 -16.84,-52.89 -10.3,-118.414 13.58,-157.254 7.47,-11.699 25.28,-37.449 49.15,-27.597 21.06,8.41 16.38,35.089 22.46,58.476 1.4,5.656 0.46,9.367 3.26,13.106 v -0.946 c 6.55,-13.086 13.12,-25.691 19.2,-38.84 14.53,-22.91 39.78,-46.785 60.86,-62.683 11.2,-8.457 20.1,-22.942 34.14,-28.106 v 1.414 h -0.92 c -2.82,4.2 -7.02,6.086 -10.77,9.348 -8.42,8.43 -17.76,18.731 -24.34,28.086 -19.65,26.199 -36.99,55.234 -52.4,85.184 -7.51,14.543 -14.05,30.441 -20.14,44.941 -2.8,5.59 -2.8,14.039 -7.49,16.84 -7.04,-10.285 -17.31,-19.191 -22.45,-31.789 -8.9,-20.149 -9.83,-44.949 -13.13,-70.703 -1.86,-0.489 -0.92,0 -1.86,-0.93 -14.96,3.742 -20.11,19.184 -25.74,32.246 -14.04,33.274 -16.4,86.627 -4.21,125.007 3.26,9.81 17.34,40.7 11.7,50.06 -2.83,8.93 -12.18,14.03 -17.32,21.08 -6.07,8.89 -12.66,20.1 -16.83,29.95 -11.24,26.2 -16.89,55.23 -29.02,81.43 -5.62,12.19 -15.47,24.83 -23.4,36.04 -8.91,12.64 -18.73,21.53 -25.76,36.49 -2.32,5.16 -5.6,13.59 -1.87,19.19 0.92,3.75 2.82,5.16 6.57,6.1 6.05,5.15 23.39,-1.39 29.46,-4.2 17.33,-7 31.84,-13.59 46.33,-23.4 6.56,-4.69 13.58,-13.58 21.99,-15.94 h 9.85 c 14.97,-3.25 31.83,-0.91 45.88,-5.14 24.79,-7.95 47.25,-19.65 67.39,-32.29 61.29,-38.85 111.84,-94.09 145.99,-160.07 5.63,-10.75 7.99,-20.59 13.13,-31.8 9.83,-22.98 22.01,-46.38 31.82,-68.823 9.82,-22 19.2,-44.446 33.26,-62.727 7,-9.812 35.09,-14.961 47.73,-20.113 9.34,-4.199 23.87,-7.949 32.3,-13.09 15.91,-9.812 31.79,-21.062 46.79,-31.844 7.47,-5.617 30.88,-17.304 32.29,-26.679" style="fill: rgb(44, 116, 147); fill-opacity: 1; fill-rule: evenodd;" id="path26"></path>
    </g>
  </g>
</svg>